<svg width="42" height="43" viewBox="0 0 42 43" fill="none" xmlns="http://www.w3.org/2000/svg">
<path d="M32.7425 34.6055C31.29 36.7755 29.75 38.893 27.405 38.928C25.06 38.9805 24.3075 37.5455 21.6475 37.5455C18.97 37.5455 18.1475 38.893 15.925 38.9805C13.6325 39.068 11.9 36.6705 10.43 34.553C7.43748 30.2305 5.14498 22.268 8.22498 16.913C9.74748 14.253 12.4775 12.573 15.435 12.5205C17.675 12.4855 19.81 14.043 21.1925 14.043C22.5575 14.043 25.1475 12.1705 27.86 12.4505C28.9975 12.503 32.1825 12.9055 34.23 15.9155C34.0725 16.0205 30.4325 18.1555 30.4675 22.583C30.52 27.868 35.105 29.6355 35.1575 29.653C35.105 29.7755 34.4225 32.173 32.7425 34.6055ZM22.75 6.60547C24.0275 5.15297 26.145 4.05047 27.895 3.98047C28.1225 6.02797 27.3 8.09297 26.075 9.56297C24.8675 11.0505 22.8725 12.2055 20.9125 12.048C20.65 10.0355 21.63 7.93547 22.75 6.60547Z" fill="white"/>
</svg>
