<svg width="175" height="175" viewBox="0 0 175 175" fill="none" xmlns="http://www.w3.org/2000/svg">
<g id="Group 34664">
<g id="Group 34663">
<circle id="Ellipse 1344" cx="87.5" cy="87.5" r="84.5" fill="#D9D9D9"/>
<circle id="Ellipse 1345" cx="87.5" cy="87.5" r="87" stroke="#D1D1D1"/>
</g>
<path id="Vector" d="M88 38C94.6304 38 100.989 40.6339 105.678 45.3223C110.366 50.0107 113 56.3696 113 63C113 69.6304 110.366 75.9893 105.678 80.6777C100.989 85.3661 94.6304 88 88 88C81.3696 88 75.0107 85.3661 70.3223 80.6777C65.6339 75.9893 63 69.6304 63 63C63 56.3696 65.6339 50.0107 70.3223 45.3223C75.0107 40.6339 81.3696 38 88 38ZM88 100.5C115.625 100.5 138 111.688 138 125.5V138H38V125.5C38 111.688 60.375 100.5 88 100.5Z" fill="#A3A3A3"/>
</g>
</svg>
