    <svg width="158" height="44" viewBox="0 0 158 44" fill="none" xmlns="http://www.w3.org/2000/svg">
    <rect width="158" height="41" transform="translate(0 3)" fill="white"/>
    <path d="M21.6331 23.7267L21.9868 24.0224L22.7701 24.6758C22.93 24.8097 23.0898 24.9436 23.2497 25.0775L23.4336 25.2314C23.6933 25.4492 23.7533 25.7469 23.5934 26.0267C23.4675 26.2505 23.3396 26.4763 23.2097 26.7001C22.916 27.2117 22.6223 27.7192 22.3405 28.2068C22.3045 28.2688 18.7116 34.4794 18.296 35.2048C17.5046 36.5876 17.7105 38.2882 18.8095 39.4372C18.9634 39.597 19.1312 39.7289 19.2931 39.8568C19.361 39.9108 19.431 39.9667 19.5009 40.0227L19.9146 40.3684L22.8461 35.3307C22.868 35.2907 24.1909 33.0267 25.4318 30.8965L25.4418 30.8805C25.4678 30.8426 25.4878 30.8106 25.5078 30.7786L26.1192 29.7275C26.5789 28.9382 27.0365 28.1469 27.5001 27.3595C27.8238 26.81 27.9956 26.2745 28.0296 25.7249C28.0995 24.5759 27.7139 23.5888 26.9146 22.8714C25.9874 22.0381 25.0462 21.2028 24.115 20.3775C23.9991 20.2756 23.8832 20.1717 23.7693 20.0698C23.6534 19.9659 23.5375 19.866 23.4216 19.7621C23.1958 19.5622 22.968 19.3624 22.7441 19.1626C22.4084 18.8648 22.0707 18.5671 21.735 18.2693C21.6451 18.1894 21.5552 18.1115 21.4652 18.0315C21.4393 18.0076 21.4133 17.9856 21.3873 17.9616C21.2834 17.8697 21.1815 17.7798 21.0796 17.6878C21.0676 17.6759 21.0536 17.6659 21.0416 17.6539C21.0336 17.6459 21.0236 17.6379 21.0156 17.6299L19.7527 16.5089C19.0853 15.9154 18.4159 15.3219 17.7484 14.7304C17.5006 14.5106 17.1949 14.3927 16.8892 14.3927C16.8272 14.3927 16.7653 14.3967 16.7033 14.4067C16.3336 14.4646 16.0059 14.6984 15.8021 15.0461C15.7701 15.1001 15.7382 15.154 15.7062 15.208C15.6682 15.2719 15.6303 15.3339 15.5943 15.3978L3.16895 36.6795L3.55661 36.9093C4.0362 37.1931 4.53777 37.353 5.04933 37.3829C5.14125 37.3889 5.23118 37.3909 5.3191 37.3909C5.3211 37.3909 5.3231 37.3909 5.32509 37.3909C5.34508 37.3909 5.36506 37.3909 5.38504 37.3909C5.45498 37.3909 5.52292 37.3889 5.59087 37.3849C5.61884 37.3849 5.64482 37.3789 5.6728 37.3769C5.73274 37.3729 5.7907 37.367 5.84865 37.359C5.87862 37.355 5.9066 37.351 5.93457 37.345C5.99052 37.337 6.04448 37.329 6.10043 37.317C6.1304 37.311 6.15838 37.305 6.18636 37.297C6.23831 37.285 6.29226 37.273 6.34422 37.259C6.3722 37.2511 6.40017 37.2431 6.43015 37.2351C6.4801 37.2211 6.53206 37.2051 6.58202 37.1871C6.60999 37.1771 6.63797 37.1671 6.66395 37.1571C6.7139 37.1391 6.76186 37.1192 6.80982 37.0992C6.8378 37.0872 6.86377 37.0752 6.88975 37.0632C6.93771 37.0412 6.98367 37.0192 7.02963 36.9953C7.05561 36.9813 7.08159 36.9673 7.10756 36.9533C7.15353 36.9273 7.19749 36.9014 7.24145 36.8754C7.26743 36.8594 7.29141 36.8434 7.31739 36.8274C7.36135 36.7994 7.40331 36.7695 7.44528 36.7395C7.46925 36.7215 7.49323 36.7055 7.51721 36.6855C7.55918 36.6536 7.59914 36.6216 7.63911 36.5876C7.66309 36.5676 7.68507 36.5497 7.70905 36.5297C7.74901 36.4957 7.78498 36.4597 7.82295 36.4238C7.84493 36.4018 7.86691 36.3818 7.88889 36.3598C7.92686 36.3218 7.96283 36.2819 7.9988 36.2439C8.02078 36.2199 8.04076 36.198 8.06275 36.174C8.09871 36.132 8.13269 36.0881 8.16865 36.0441C8.18864 36.0201 8.20662 35.9961 8.2266 35.9721C8.26257 35.9242 8.29854 35.8742 8.33251 35.8223C8.3485 35.8003 8.36449 35.7783 8.37847 35.7563C8.42843 35.6824 8.47439 35.6065 8.52035 35.5265C10.6885 31.7778 12.8526 28.029 15.0168 24.2782L17.3827 20.1777L18.8695 21.4186L19.2232 21.7144L19.5769 22.0101L21.2834 23.4329L21.6371 23.7287L21.6331 23.7267Z" fill="#00E1B6"/>
    <path d="M21.5232 24.8179L18.7456 29.5898L18.332 29.2441C18.262 29.1862 18.1941 29.1322 18.1242 29.0783C17.9623 28.9504 17.7944 28.8185 17.6406 28.6586C16.5415 27.5096 16.3337 25.8091 17.127 24.4263C17.153 24.3803 17.193 24.3104 17.2449 24.2224C17.3029 24.1205 17.3768 23.9926 17.4647 23.8428C17.7025 23.4291 18.0362 22.8536 18.4039 22.2162L18.4079 22.2202L18.7576 22.5119H18.7616L19.1113 22.8077H19.1153L20.8159 24.2284L21.1695 24.5242L21.5232 24.8199V24.8179ZM25.7436 12.0969C24.3548 10.8499 22.934 9.593 21.5592 8.37805C20.9877 7.87248 20.4142 7.36492 19.8427 6.85935L18.5498 5.71233C17.8924 5.12884 17.2329 4.54334 16.5735 3.95984C16.2757 3.69607 15.8961 3.57817 15.5284 3.63811C15.1587 3.69607 14.831 3.92986 14.6272 4.27757C14.5952 4.33352 14.5612 4.38747 14.5292 4.44143C14.4913 4.50337 14.4553 4.56532 14.4173 4.62926L3.22895 23.7948L2 25.901L2.38767 26.1308C2.86726 26.4146 3.36883 26.5744 3.88039 26.6024C3.97231 26.6084 4.06223 26.6104 4.15015 26.6104C4.15215 26.6104 4.15415 26.6104 4.15815 26.6104C4.17214 26.6104 4.18612 26.6104 4.20011 26.6104C4.27605 26.6104 4.34998 26.6084 4.42392 26.6024C4.4479 26.6024 4.47188 26.5984 4.49586 26.5964C4.5598 26.5904 4.62175 26.5864 4.6837 26.5784C4.71167 26.5744 4.73765 26.5704 4.76563 26.5664C4.82358 26.5584 4.87953 26.5485 4.93548 26.5385C4.96346 26.5325 4.99143 26.5265 5.02141 26.5205C5.07536 26.5085 5.12732 26.4965 5.17927 26.4825C5.20925 26.4745 5.23722 26.4665 5.2652 26.4565C5.31515 26.4425 5.36511 26.4266 5.41307 26.4086C5.44305 26.3986 5.47102 26.3866 5.499 26.3766C5.54696 26.3586 5.59292 26.3406 5.63888 26.3206C5.66685 26.3087 5.69683 26.2947 5.7248 26.2827C5.76877 26.2627 5.81473 26.2407 5.85869 26.2187C5.88666 26.2047 5.91464 26.1888 5.94262 26.1728C5.98458 26.1488 6.02654 26.1248 6.06851 26.0988C6.09648 26.0809 6.12446 26.0649 6.15044 26.0469C6.1904 26.0209 6.23037 25.9929 6.27034 25.965C6.29631 25.945 6.32429 25.927 6.35027 25.907C6.38823 25.877 6.4262 25.8471 6.46417 25.8151C6.49015 25.7931 6.51612 25.7731 6.5401 25.7511C6.57607 25.7192 6.61204 25.6852 6.64801 25.6512C6.67199 25.6272 6.69797 25.6053 6.71995 25.5813C6.75592 25.5453 6.78989 25.5073 6.82386 25.4714C6.84584 25.4474 6.86982 25.4214 6.8918 25.3974C6.92577 25.3575 6.95974 25.3155 6.99172 25.2735C7.0117 25.2476 7.03368 25.2236 7.05366 25.1976C7.08963 25.1497 7.1236 25.1017 7.15757 25.0517C7.17356 25.0278 7.18955 25.0058 7.20553 24.9818C7.25549 24.9079 7.30145 24.8319 7.34741 24.752C9.55552 20.9353 11.7956 17.0526 13.9637 13.2978L16.2098 9.40517L21.5992 13.9033C21.755 14.0332 21.9109 14.1631 22.0648 14.295L22.2626 14.4608C22.5224 14.6786 22.5823 14.9764 22.4225 15.2581C22.2706 15.5299 22.1167 15.7977 21.9629 16.0654C21.809 16.3332 21.6551 16.599 21.4993 16.8668L21.6092 16.9647C21.6871 17.0346 21.767 17.1046 21.845 17.1725C21.9609 17.2744 22.0768 17.3783 22.1927 17.4802C22.5743 17.8179 22.956 18.1557 23.3377 18.4954L23.3617 18.5173C23.5335 18.6692 23.7054 18.8231 23.8792 18.975C23.8792 18.975 23.8812 18.9769 23.8832 18.9789C23.9971 19.0809 24.111 19.1808 24.2269 19.2827C24.2269 19.2827 24.2289 19.2847 24.2309 19.2867C24.3448 19.3886 24.4587 19.4885 24.5746 19.5904C24.5746 19.5904 24.5766 19.5924 24.5786 19.5944C24.6985 19.3866 24.8184 19.1808 24.9403 18.973C25.276 18.3954 25.6197 17.804 25.9634 17.2145C25.9774 17.1905 25.9914 17.1685 26.0034 17.1445C26.1113 16.9607 26.2192 16.7768 26.3271 16.593C26.5749 16.1714 26.7348 15.7597 26.8107 15.3441C26.8207 15.2841 26.8307 15.2242 26.8387 15.1642C26.8467 15.0963 26.8527 15.0283 26.8587 14.9584C26.9286 13.8094 26.5429 12.8222 25.7416 12.1048" fill="#0F0F0F"/>
    <path d="M36.3771 20L39.3571 6H42.9571L39.9771 20H36.3771ZM56.9579 17.92C56.8912 18.2133 56.7912 18.4933 56.6579 18.76C56.5379 19.0267 56.3579 19.2667 56.1179 19.48C55.8912 19.68 55.5979 19.8467 55.2379 19.98C54.8779 20.1 54.4446 20.16 53.9379 20.16C53.6979 20.16 53.4579 20.1467 53.2179 20.12C52.9912 20.0933 52.7712 20.04 52.5579 19.96C52.3446 19.8667 52.1512 19.7333 51.9779 19.56C51.8046 19.3867 51.6579 19.16 51.5379 18.88L48.0379 10.66C47.9179 10.4333 47.8112 10.32 47.7179 10.32C47.6779 10.32 47.6246 10.34 47.5579 10.38C47.4912 10.42 47.4379 10.5333 47.3979 10.72L45.4179 20H42.1779L44.7179 8.04C44.8112 7.61333 44.9512 7.26 45.1379 6.98C45.3379 6.68667 45.5779 6.46 45.8579 6.3C46.1379 6.12667 46.4446 6.00667 46.7779 5.94C47.1112 5.87333 47.4646 5.84 47.8379 5.84C48.3446 5.84 48.8046 5.92667 49.2179 6.1C49.6446 6.26 49.9579 6.57333 50.1579 7.04L53.6979 15.34C53.7246 15.4067 53.7512 15.48 53.7779 15.56C53.8179 15.64 53.8846 15.68 53.9779 15.68C54.0846 15.68 54.1579 15.64 54.1979 15.56C54.2379 15.4667 54.2646 15.3933 54.2779 15.34L56.2579 6H59.4979L56.9579 17.92ZM60.8409 20C60.2809 20 59.8542 19.86 59.5609 19.58C59.2675 19.3 59.1209 18.92 59.1209 18.44C59.1209 18.2533 59.1409 18.06 59.1809 17.86L61.2409 8.16C61.4009 7.4 61.6809 6.85333 62.0809 6.52C62.4809 6.17333 63.0609 6 63.8209 6H69.0409C69.9475 6 70.7075 6.12 71.3209 6.36C71.9475 6.6 72.4475 6.94 72.8209 7.38C73.2075 7.82 73.4809 8.34667 73.6409 8.96C73.8142 9.57333 73.9009 10.2533 73.9009 11C73.9009 11.4 73.8809 11.7933 73.8409 12.18C73.8009 12.5667 73.7409 12.9733 73.6609 13.4C73.4609 14.48 73.2142 15.4333 72.9209 16.26C72.6275 17.0867 72.2209 17.78 71.7009 18.34C71.1809 18.8867 70.5142 19.3 69.7009 19.58C68.8875 19.86 67.8675 20 66.6409 20H60.8409ZM63.1409 16.2C63.1009 16.36 63.0809 16.5 63.0809 16.62C63.0809 16.8333 63.1409 16.9867 63.2609 17.08C63.3942 17.16 63.6142 17.2 63.9209 17.2H64.7409C65.5409 17.2 66.2275 17.1533 66.8009 17.06C67.3875 16.9533 67.8809 16.76 68.2809 16.48C68.6942 16.1867 69.0342 15.78 69.3009 15.26C69.5675 14.74 69.7942 14.0533 69.9809 13.2C70.0475 12.8533 70.1009 12.5067 70.1409 12.16C70.1942 11.8 70.2209 11.4933 70.2209 11.24C70.2209 10.76 70.1542 10.3667 70.0209 10.06C69.9009 9.74 69.6942 9.48667 69.4009 9.3C69.1075 9.11333 68.7209 8.98667 68.2409 8.92C67.7742 8.84 67.2009 8.8 66.5209 8.8H65.7009C65.3142 8.8 65.0342 8.87333 64.8609 9.02C64.7009 9.15333 64.5809 9.41333 64.5009 9.8L63.1409 16.2ZM73.9357 20L76.9157 6H80.5157L77.5357 20H73.9357ZM86.1165 7.48C86.2898 7.2 86.4698 6.96 86.6565 6.76C86.8432 6.56 87.0498 6.39333 87.2765 6.26C87.5165 6.11333 87.7898 6.00667 88.0965 5.94C88.4165 5.87333 88.7898 5.84 89.2165 5.84C89.8565 5.84 90.3765 5.94667 90.7765 6.16C91.1898 6.36 91.4698 6.8 91.6165 7.48L94.1965 20H90.6165L90.0365 16.8H84.1365L82.1965 20H78.2565L86.1165 7.48ZM85.5965 14.08H89.7365L88.8965 9.64C88.8698 9.53333 88.8498 9.43333 88.8365 9.34C88.8232 9.24667 88.7832 9.2 88.7165 9.2C88.6498 9.2 88.5832 9.24667 88.5165 9.34C88.4498 9.43333 88.3832 9.53333 88.3165 9.64L85.5965 14.08Z" fill="#0F0F0F"/>
    <path d="M38.8971 26.1512C39.0571 25.3912 39.3371 24.8445 39.7371 24.5112C40.1371 24.1645 40.7171 23.9912 41.4771 23.9912H48.5571C49.7171 23.9912 50.5438 24.3045 51.0371 24.9312C51.5438 25.5445 51.7971 26.4045 51.7971 27.5112C51.7971 27.6845 51.7838 27.9045 51.7571 28.1712C51.7438 28.4378 51.7238 28.6845 51.6971 28.9112C51.6038 29.5378 51.4638 30.1245 51.2771 30.6712C51.0904 31.2178 50.8304 31.6978 50.4971 32.1112C50.1771 32.5112 49.7704 32.8312 49.2771 33.0712C48.7971 33.2978 48.2104 33.4112 47.5171 33.4112H46.5171L46.4971 33.5112L49.9971 37.9912H45.7771L43.1971 34.3512C42.9971 34.0712 42.8038 33.7778 42.6171 33.4712C42.4304 33.1512 42.3371 32.8445 42.3371 32.5512C42.3371 32.4845 42.3438 32.4112 42.3571 32.3312C42.3704 32.2512 42.3904 32.1578 42.4171 32.0512C42.5238 31.5178 42.7771 31.1778 43.1771 31.0312C43.5771 30.8712 44.1038 30.7912 44.7571 30.7912H45.9371C46.6038 30.7912 47.0771 30.6245 47.3571 30.2912C47.6504 29.9445 47.8704 29.4178 48.0171 28.7112C48.0438 28.5512 48.0638 28.4045 48.0771 28.2712C48.1038 28.1245 48.1171 27.9912 48.1171 27.8712C48.1171 27.4712 48.0038 27.1912 47.7771 27.0312C47.5504 26.8712 47.1704 26.7912 46.6371 26.7912H43.2971C42.9504 26.7912 42.6904 26.8645 42.5171 27.0112C42.3571 27.1445 42.2371 27.3845 42.1571 27.7312L39.9771 37.9912H36.3771L38.8971 26.1512ZM58.7896 35.3512C59.7896 35.3512 60.5696 35.1245 61.1296 34.6712C61.7029 34.2045 62.0963 33.4712 62.3096 32.4712L64.1296 23.9912H67.7296L65.8696 32.6512C65.6296 33.7445 65.3096 34.6512 64.9096 35.3712C64.5229 36.0778 64.0296 36.6378 63.4296 37.0512C62.8296 37.4645 62.1229 37.7512 61.3096 37.9112C60.4963 38.0712 59.5496 38.1512 58.4696 38.1512C57.5763 38.1512 56.7696 38.0645 56.0496 37.8912C55.3429 37.7178 54.7363 37.4578 54.2296 37.1112C53.7363 36.7512 53.3563 36.3112 53.0896 35.7912C52.8229 35.2578 52.6896 34.6378 52.6896 33.9312C52.6896 33.7045 52.7029 33.4845 52.7296 33.2712C52.7563 33.0578 52.7896 32.8512 52.8296 32.6512L54.6896 23.9912H58.2896L56.4696 32.4712C56.3896 32.8312 56.3496 33.1578 56.3496 33.4512C56.3496 34.1178 56.5496 34.6045 56.9496 34.9112C57.3496 35.2045 57.9629 35.3512 58.7896 35.3512ZM81.704 35.9112C81.6373 36.2045 81.5373 36.4845 81.404 36.7512C81.284 37.0178 81.104 37.2578 80.864 37.4712C80.6373 37.6712 80.344 37.8378 79.984 37.9712C79.624 38.0912 79.1907 38.1512 78.684 38.1512C78.444 38.1512 78.204 38.1378 77.964 38.1112C77.7373 38.0845 77.5173 38.0312 77.304 37.9512C77.0907 37.8578 76.8973 37.7245 76.724 37.5512C76.5507 37.3778 76.404 37.1512 76.284 36.8712L72.784 28.6512C72.664 28.4245 72.5573 28.3112 72.464 28.3112C72.424 28.3112 72.3707 28.3312 72.304 28.3712C72.2373 28.4112 72.184 28.5245 72.144 28.7112L70.164 37.9912H66.924L69.464 26.0312C69.5573 25.6045 69.6973 25.2512 69.884 24.9712C70.084 24.6778 70.324 24.4512 70.604 24.2912C70.884 24.1178 71.1907 23.9978 71.524 23.9312C71.8573 23.8645 72.2107 23.8312 72.584 23.8312C73.0907 23.8312 73.5507 23.9178 73.964 24.0912C74.3907 24.2512 74.704 24.5645 74.904 25.0312L78.444 33.3312C78.4707 33.3978 78.4973 33.4712 78.524 33.5512C78.564 33.6312 78.6307 33.6712 78.724 33.6712C78.8307 33.6712 78.904 33.6312 78.944 33.5512C78.984 33.4578 79.0107 33.3845 79.024 33.3312L81.004 23.9912H84.244L81.704 35.9112ZM98.247 35.9112C98.1803 36.2045 98.0803 36.4845 97.947 36.7512C97.827 37.0178 97.647 37.2578 97.407 37.4712C97.1803 37.6712 96.887 37.8378 96.527 37.9712C96.167 38.0912 95.7336 38.1512 95.227 38.1512C94.987 38.1512 94.747 38.1378 94.507 38.1112C94.2803 38.0845 94.0603 38.0312 93.847 37.9512C93.6336 37.8578 93.4403 37.7245 93.267 37.5512C93.0936 37.3778 92.947 37.1512 92.827 36.8712L89.327 28.6512C89.207 28.4245 89.1003 28.3112 89.007 28.3112C88.967 28.3112 88.9136 28.3312 88.847 28.3712C88.7803 28.4112 88.727 28.5245 88.687 28.7112L86.707 37.9912H83.467L86.007 26.0312C86.1003 25.6045 86.2403 25.2512 86.427 24.9712C86.627 24.6778 86.867 24.4512 87.147 24.2912C87.427 24.1178 87.7336 23.9978 88.067 23.9312C88.4003 23.8645 88.7536 23.8312 89.127 23.8312C89.6336 23.8312 90.0936 23.9178 90.507 24.0912C90.9336 24.2512 91.247 24.5645 91.447 25.0312L94.987 33.3312C95.0136 33.3978 95.0403 33.4712 95.067 33.5512C95.107 33.6312 95.1736 33.6712 95.267 33.6712C95.3736 33.6712 95.447 33.6312 95.487 33.5512C95.527 33.4578 95.5536 33.3845 95.567 33.3312L97.547 23.9912H100.787L98.247 35.9112ZM100.01 37.9912L102.99 23.9912H106.59L103.61 37.9912H100.01ZM120.591 35.9112C120.524 36.2045 120.424 36.4845 120.291 36.7512C120.171 37.0178 119.991 37.2578 119.751 37.4712C119.524 37.6712 119.231 37.8378 118.871 37.9712C118.511 38.0912 118.077 38.1512 117.571 38.1512C117.331 38.1512 117.091 38.1378 116.851 38.1112C116.624 38.0845 116.404 38.0312 116.191 37.9512C115.977 37.8578 115.784 37.7245 115.611 37.5512C115.437 37.3778 115.291 37.1512 115.171 36.8712L111.671 28.6512C111.551 28.4245 111.444 28.3112 111.351 28.3112C111.311 28.3112 111.257 28.3312 111.191 28.3712C111.124 28.4112 111.071 28.5245 111.031 28.7112L109.051 37.9912H105.811L108.351 26.0312C108.444 25.6045 108.584 25.2512 108.771 24.9712C108.971 24.6778 109.211 24.4512 109.491 24.2912C109.771 24.1178 110.077 23.9978 110.411 23.9312C110.744 23.8645 111.097 23.8312 111.471 23.8312C111.977 23.8312 112.437 23.9178 112.851 24.0912C113.277 24.2512 113.591 24.5645 113.791 25.0312L117.331 33.3312C117.357 33.3978 117.384 33.4712 117.411 33.5512C117.451 33.6312 117.517 33.6712 117.611 33.6712C117.717 33.6712 117.791 33.6312 117.831 33.5512C117.871 33.4578 117.897 33.3845 117.911 33.3312L119.891 23.9912H123.131L120.591 35.9112ZM131.714 26.7912C131.007 26.7912 130.4 26.8578 129.894 26.9912C129.4 27.1112 128.974 27.3312 128.614 27.6512C128.267 27.9712 127.974 28.4045 127.734 28.9512C127.494 29.4845 127.287 30.1645 127.114 30.9912C126.954 31.7778 126.874 32.4245 126.874 32.9312C126.874 33.7978 127.114 34.3912 127.594 34.7112C128.087 35.0312 128.867 35.1912 129.934 35.1912H131.454C131.8 35.1912 132.06 35.1245 132.234 34.9912C132.407 34.8445 132.527 34.5978 132.594 34.2512L133.314 30.8712H136.914L135.854 35.8512C135.694 36.6112 135.414 37.1578 135.014 37.4912C134.614 37.8245 134.034 37.9912 133.274 37.9912H128.354C127.42 37.9912 126.627 37.8778 125.974 37.6512C125.32 37.4245 124.787 37.1045 124.374 36.6912C123.96 36.2645 123.66 35.7578 123.474 35.1712C123.287 34.5712 123.194 33.8978 123.194 33.1512C123.194 32.7645 123.214 32.3578 123.254 31.9312C123.294 31.5045 123.36 31.0578 123.454 30.5912C123.667 29.4845 123.934 28.5178 124.254 27.6912C124.587 26.8645 125.034 26.1778 125.594 25.6312C126.167 25.0845 126.88 24.6778 127.734 24.4112C128.587 24.1312 129.654 23.9912 130.934 23.9912H138.054L137.454 26.7912H131.714Z" fill="#FF005C"/>
    </svg>
