<svg xmlns="http://www.w3.org/2000/svg" viewBox="0 0 519.73 156.59"><defs><style>.cls-1{fill:#fff;}.cls-2{fill:#dd3c3c;}</style></defs><title>fitpage_logo_horizontal_white</title><g id="Layer_2" data-name="Layer 2"><g id="Layer_1-2" data-name="Layer 1"><path class="cls-1" d="M148.09,85.5,75.92,14.82S23.05,63.4.35,85.45a78.28,78.28,0,0,0,99.12,68.08Z"/><path class="cls-2" d="M74.33.1A78.35,78.35,0,0,0,4.92,105.67l70.81-70.8a3.38,3.38,0,0,1,4.78,0l13.8,13.81a3.36,3.36,0,0,1,0,4.78L18.7,129.07A78.3,78.3,0,1,0,74.33.1ZM75.68,119l-13.81-13.8a3.39,3.39,0,0,1,0-4.79l13.81-13.8a3.38,3.38,0,0,1,4.78,0l13.8,13.8a3.39,3.39,0,0,1,0,4.79L80.46,119A3.38,3.38,0,0,1,75.68,119Zm41.51-10.23L87.67,79.27a3.39,3.39,0,0,1,0-4.79l13.8-13.8a3.38,3.38,0,0,1,4.78,0L135.78,90.2a3.39,3.39,0,0,1,0,4.79L122,108.79A3.39,3.39,0,0,1,117.19,108.79Z"/><path class="cls-1" d="M273.14,47.83l12.73-2-3.86,16h17.3l-2.42,10.1H279.57L274.51,92.8c-.32,1.49-.55,2.72-.67,3.69a20.55,20.55,0,0,0-.2,2.68,11.12,11.12,0,0,0,.26,2.38,4.3,4.3,0,0,0,1,2,5.45,5.45,0,0,0,2.22,1.41,11.55,11.55,0,0,0,4,.56,19.52,19.52,0,0,0,5.26-.71,37.41,37.41,0,0,0,4.44-1.52l.91,9.81a40.71,40.71,0,0,1-5.86,1.92,33.83,33.83,0,0,1-8.29.91q-8.68,0-12.43-3.79t-3.74-10.36a36,36,0,0,1,.36-5,54.56,54.56,0,0,1,1.06-5.51Z"/><path class="cls-1" d="M351.15,80.78a39.43,39.43,0,0,1-2.27,13.49,31.52,31.52,0,0,1-17.38,18.6,35.75,35.75,0,0,1-14.5,2.77,28.07,28.07,0,0,1-2.88-.15c-1-.1-1.94-.22-2.88-.35l-4.48,18.19h-12.2L311.24,63.9a54.44,54.44,0,0,1,9.24-2.42,58,58,0,0,1,10.26-.91,24.55,24.55,0,0,1,9.15,1.56,17.07,17.07,0,0,1,6.36,4.3,17.6,17.6,0,0,1,3.69,6.41A25.25,25.25,0,0,1,351.15,80.78Zm-37.62,24.35a14.42,14.42,0,0,0,2.13.26c.74,0,1.48,0,2.22,0a19.75,19.75,0,0,0,15.38-6.93,22.5,22.5,0,0,0,4.2-7.48,28,28,0,0,0,1.47-9.14,16.78,16.78,0,0,0-.51-4.2,9.53,9.53,0,0,0-1.67-3.48,8.12,8.12,0,0,0-3.13-2.43,12,12,0,0,0-5-.91,27.59,27.59,0,0,0-3.84.26,22.58,22.58,0,0,0-3.24.65Z"/><path class="cls-1" d="M402.19,94.12a28.33,28.33,0,0,0-.6,3.64,38.3,38.3,0,0,0-.31,4.75,31.66,31.66,0,0,0,.51,5.71,29.4,29.4,0,0,0,1.61,5.6l-10.91,1.62a26,26,0,0,1-1.92-5.15,27.3,27.3,0,0,1-6.22,4,21.15,21.15,0,0,1-16.47.2,14.4,14.4,0,0,1-5.51-4.34,18.72,18.72,0,0,1-3.13-6.52,31.07,31.07,0,0,1-1-8.09,35.51,35.51,0,0,1,2.63-13.74,33,33,0,0,1,7.32-11,34.57,34.57,0,0,1,11.17-7.33,36.73,36.73,0,0,1,14.15-2.67,49.6,49.6,0,0,1,7.93.65,32.71,32.71,0,0,1,8,2.48Zm-6.64-22.84a21.3,21.3,0,0,0-4.35-.41,18.17,18.17,0,0,0-8.4,2,21.59,21.59,0,0,0-6.63,5.26,24.14,24.14,0,0,0-4.3,7.53,26.23,26.23,0,0,0-1.51,8.89,22.18,22.18,0,0,0,.4,4.35,10.28,10.28,0,0,0,1.36,3.53,7.17,7.17,0,0,0,2.58,2.43,8.36,8.36,0,0,0,4.15.91,11.78,11.78,0,0,0,5.71-1.36,17.92,17.92,0,0,0,4.59-3.69,43.87,43.87,0,0,1,.46-5,45.17,45.17,0,0,1,1-4.65Z"/><path class="cls-1" d="M427.25,123.33q7.49,0,11.27-3.44a17.29,17.29,0,0,0,5.11-9.4l.3-1.41a31.68,31.68,0,0,1-4.85,1.86,20.21,20.21,0,0,1-6,.86q-8.89,0-13.19-4.8t-4.3-12.78a35,35,0,0,1,2.53-13.44,31.16,31.16,0,0,1,7.13-10.66,32.55,32.55,0,0,1,11.06-7,39.24,39.24,0,0,1,14.35-2.52,43.27,43.27,0,0,1,8.24.85,27.86,27.86,0,0,1,7.93,2.78l-10.71,44.88a54.37,54.37,0,0,1-3.59,10.56,23.25,23.25,0,0,1-5.71,7.68,24,24,0,0,1-8.74,4.7,43.08,43.08,0,0,1-12.58,1.61,37.16,37.16,0,0,1-9.65-1.16,35.42,35.42,0,0,1-7.53-2.88l4.34-9.9a26.61,26.61,0,0,0,6.32,2.62A30.18,30.18,0,0,0,427.25,123.33Zm8.88-21.43a16.93,16.93,0,0,0,5.6-1,16.51,16.51,0,0,0,4.79-2.53l6.51-27a21.15,21.15,0,0,0-4.55-.51,20,20,0,0,0-15,6.37,21.25,21.25,0,0,0-4.24,6.82,22.83,22.83,0,0,0-1.52,8.34,11.25,11.25,0,0,0,1.92,7C431,101.06,433.11,101.9,436.13,101.9Z"/><path class="cls-1" d="M472.33,95.53a39.88,39.88,0,0,1,2.17-13.08,35.13,35.13,0,0,1,6.27-11.22,30.83,30.83,0,0,1,9.85-7.83,28,28,0,0,1,12.94-2.94q7.68,0,11.92,3.95a13.15,13.15,0,0,1,4.25,10.1q0,6.38-3.14,10.31A21.25,21.25,0,0,1,508.46,91a40.56,40.56,0,0,1-11.32,3q-6.31.81-12.79,1a1,1,0,0,0-.1.4v1q0,9.19,11.63,9.2a35.77,35.77,0,0,0,13.74-2.83l1,9.9a40.46,40.46,0,0,1-6.87,2.23,41.94,41.94,0,0,1-10.11,1.11,26,26,0,0,1-9.7-1.62,17.25,17.25,0,0,1-10.41-11A25.25,25.25,0,0,1,472.33,95.53Zm29.41-25.06A14,14,0,0,0,496,71.68,16,16,0,0,0,491.12,75a21.5,21.5,0,0,0-3.68,5,22.64,22.64,0,0,0-2.28,6.21q12.13-.39,17.64-2.93t5.51-7.58a5.27,5.27,0,0,0-1.47-3.63Q505.37,70.47,501.74,70.47Z"/><path class="cls-1" d="M258.84,40.4a7.43,7.43,0,0,0-4.8-1.66,8.33,8.33,0,0,0-5.91,2.42,8.1,8.1,0,0,0-2.58,6.17,5.84,5.84,0,0,0,2,4.85,7.36,7.36,0,0,0,4.75,1.61,8.66,8.66,0,0,0,6-2.37,7.87,7.87,0,0,0,2.63-6.12A5.94,5.94,0,0,0,258.84,40.4Z"/><path class="cls-1" d="M203.36,114.63c.14-.47.3-.92.43-1.41q1.17-4.25,2.48-9.7l7.6-31.64H231.5l2.43-10.1H216.19l1-3.54a27.28,27.28,0,0,1,1.57-4.7,11.82,11.82,0,0,1,2.47-3.69,10.82,10.82,0,0,1,3.64-2.37,13.8,13.8,0,0,1,5.15-.86,16.49,16.49,0,0,1,4.45.5c1.15.34,2,.61,2.63.81l4.55-9.6a23,23,0,0,0-4.55-1.46,28.15,28.15,0,0,0-6.37-.66,31,31,0,0,0-9.95,1.46,21,21,0,0,0-7.38,4.25,23.14,23.14,0,0,0-5.16,6.87A41.54,41.54,0,0,0,204.92,58l-12,50.53c-.49,2.21-1.06,4.2-1.67,6.06Z"/><polygon class="cls-1" points="230.99 114.63 241.61 114.63 243.22 114.63 255.96 61.78 243.73 61.78 230.99 114.63"/></g></g></svg>