<svg width="21" height="20" viewBox="0 0 21 20" fill="none" xmlns="http://www.w3.org/2000/svg">
<path fill-rule="evenodd" clip-rule="evenodd" d="M14.5048 0.06C13.4388 0.01 13.0998 0 10.3828 0C7.66581 0 7.32681 0.013 6.26081 0.06C5.19481 0.11 4.47081 0.277 3.83281 0.525C3.16524 0.775729 2.56048 1.16923 2.06081 1.678C1.55162 2.17732 1.15805 2.78218 0.907812 3.45C0.659812 4.088 0.492812 4.812 0.442812 5.878C0.392812 6.944 0.382812 7.283 0.382812 10C0.382812 12.717 0.395813 13.056 0.442812 14.122C0.492812 15.187 0.659812 15.913 0.907812 16.55C1.15874 17.2175 1.55222 17.8222 2.06081 18.322C2.56034 18.8309 3.16514 19.2245 3.83281 19.475C4.47081 19.722 5.19581 19.89 6.26081 19.94C7.32681 19.99 7.66581 20 10.3828 20C13.0998 20 13.4388 19.987 14.5048 19.94C15.5698 19.89 16.2958 19.722 16.9328 19.475C17.6001 19.2238 18.2048 18.8303 18.7048 18.322C19.2139 17.8226 19.6075 17.2178 19.8578 16.55C20.1048 15.912 20.2728 15.187 20.3228 14.122C20.3728 13.056 20.3828 12.717 20.3828 10C20.3828 7.283 20.3698 6.944 20.3228 5.878C20.2728 4.813 20.1048 4.087 19.8578 3.45C19.6068 2.78259 19.2133 2.1779 18.7048 1.678C18.1488 1.123 17.5928 0.779 16.9328 0.525C16.2948 0.277 15.5698 0.11 14.5048 0.06ZM5.38281 10C5.38281 7.23857 7.62139 5 10.3828 5C13.1442 5 15.3828 7.23857 15.3828 10C15.3828 12.7614 13.1442 15 10.3828 15C7.62139 15 5.38281 12.7614 5.38281 10ZM16.8828 4.75C16.8828 4.05964 16.3232 3.5 15.6328 3.5C14.9425 3.5 14.3828 4.05964 14.3828 4.75C14.3828 5.44035 14.9425 6 15.6328 6C16.3232 6 16.8828 5.44035 16.8828 4.75ZM13.3828 10C13.3828 8.34315 12.0397 7 10.3828 7C8.72596 7 7.38281 8.34315 7.38281 10C7.38281 11.6569 8.72596 13 10.3828 13C12.0397 13 13.3828 11.6569 13.3828 10Z" fill="white"/>
</svg>
